# xmcd
#
# Track frame offsets: 
#        150
#        13315
#        26970
#        39887
#        54752
#        66482
#        80087
#        93657
#        107102
#        118105
#        131425
#        147020
#        156597
#        169282
#        181982
#        199900
#        212755
#        222772
#        235890
#        247797
#        259725
#        273515
#
# Disc length: 3904 seconds
#
# Revision: 3
# Processed by: cddbd v1.5.2PL0 Copyright (c) Steve Scherf et al.
# Submitted via: ExactAudioCopyFreeDBPlugin 1.0
#
DISCID=480f3e16
DTITLE=Etta James - Essential Disc 1
DYEAR=1993
DGENRE=Vocal
TTITLE0=All I Could Do Is Cry
TTITLE1=My Dearest Darling
TTITLE2=If I Can't Have You
TTITLE3=A Sunday Kind Of Love
TTITLE4=Anything To Say You're Mine
TTITLE5=At Last
TTITLE6=Seven Day Fool
TTITLE7=Trust In Me
TTITLE8=Don't Cry Baby
TTITLE9=Fool That I Am
TTITLE10=One For My Baby (And One More For The Road)
TTITLE11=Waiting For Charlie (To Come Home)
TTITLE12=Something's Got A Hold On Me
TTITLE13=Next Door To The Blues
TTITLE14=These Foolish Things (Remind Me Of You)
TTITLE15=Stop The Wedding
TTITLE16=Prisoner Of Love
TTITLE17=Pushover
TTITLE18=Would It Make Any Difference To You
TTITLE19=Pay Back
TTITLE20=Two Sides To Every Story
TTITLE21=Baby What You Want Me To Do
EXTD=
EXTT0=
EXTT1=
EXTT2=With Harvey Fuqua
EXTT3=
EXTT4=
EXTT5=
EXTT6=
EXTT7=
EXTT8=
EXTT9=
EXTT10=
EXTT11=
EXTT12=
EXTT13=
EXTT14=
EXTT15=
EXTT16=
EXTT17=
EXTT18=
EXTT19=
EXTT20=
EXTT21=live
PLAYORDER=
